<svg width="28" height="28" viewBox="0 0 28 28" fill="none" xmlns="http://www.w3.org/2000/svg">
<path d="M4.36358 3.82202C4.32207 3.77056 4.24557 3.76706 4.19914 3.81415C3.76366 4.25586 1.8572 6.31588 2.01284 8.38C2.10406 10.0918 3.35919 11.1266 3.42914 11.1831C3.48383 11.2272 5.32679 13.1989 11.9384 16.4912C11.9555 16.4949 12.0178 16.5164 12.0542 16.4712C12.0542 16.4712 12.1055 16.4303 12.0787 16.3654C9.04034 9.72815 4.97028 4.57392 4.36358 3.82202Z" fill="#C4C4C4"/>
<path d="M11.2554 18.2477C11.2339 18.1741 11.144 18.1741 11.144 18.1741V18.1697L2.72032 18.4639C2.63599 18.4668 2.58623 18.5592 2.62932 18.6317C3.57213 20.2182 5.09638 21.4149 6.67898 21.0281C7.80997 20.7486 10.3702 18.9611 11.2149 18.3559H11.2127C11.2766 18.2944 11.2554 18.2477 11.2554 18.2477Z" fill="#C4C4C4"/>
<path d="M11.3534 17.3486C7.85422 14.9875 1.32033 11.4589 0.364012 10.9451C0.302707 10.9121 0.226035 10.9433 0.206403 11.01C-0.382964 13.0126 0.47716 14.6063 0.47716 14.6063C1.4104 16.5795 3.19179 17.1778 3.19179 17.1778C4.01757 17.5149 4.84061 17.5371 4.84061 17.5371C4.96864 17.5609 9.95853 17.5409 11.2964 17.5341C11.3534 17.5327 11.3828 17.4774 11.3828 17.4774C11.4262 17.4088 11.3534 17.3486 11.3534 17.3486Z" fill="#C4C4C4"/>
<path d="M10.5709 0.274017C8.28811 0.866555 7.0367 3.1818 7.76333 5.66062C7.76388 5.66242 7.76426 5.66406 7.7647 5.66592C8.52644 9.04112 12.2675 14.5848 13.0721 15.7478C13.1281 15.805 13.1738 15.7808 13.1738 15.7808C13.2599 15.7589 13.2532 15.6748 13.2532 15.6748L13.2551 15.6758C14.4023 4.20626 12.3094 0.543298 11.9944 0.0653851C11.9714 0.0304398 11.9307 0.0117367 11.8892 0.0169867C11.4746 0.0698694 10.5709 0.274017 10.5709 0.274017Z" fill="#C4C4C4"/>
<path d="M20.2504 2.93504C20.2498 2.9334 20.2493 2.93182 20.2488 2.93012C20.2279 2.85482 19.6438 0.822853 17.4033 0.27751C17.4033 0.27751 16.7882 0.12187 16.1169 0.0197141C15.8396 -0.0225046 13.5636 3.96251 14.7394 15.6853C14.7499 15.7621 14.8055 15.78 14.8055 15.78C14.8883 15.8133 14.9295 15.733 14.9295 15.733L14.9299 15.7342C15.7576 14.5394 19.4781 9.02208 20.2352 5.66318C20.2352 5.66312 20.6451 4.03743 20.2504 2.93504Z" fill="#C4C4C4"/>
<path d="M16.8425 18.1771C16.8425 18.1771 16.8369 18.1779 16.8283 18.1802C16.7639 18.197 16.726 18.2693 16.755 18.3292C16.7602 18.34 16.7677 18.3503 16.7781 18.3589V18.36C17.6013 18.9511 20.1002 20.6982 21.3035 21.0361C21.3035 21.0361 23.4558 21.7696 25.3643 18.6352C25.4083 18.5628 25.3585 18.4695 25.2738 18.4665L16.8432 18.1755L16.8425 18.1771Z" fill="#C4C4C4"/>
<path d="M27.7938 10.995C27.7735 10.9274 27.6973 10.8945 27.6352 10.928C26.6814 11.4427 20.1538 14.9827 16.654 17.3412V17.3427C16.5589 17.4064 16.6177 17.5327 16.6971 17.5327C18.0518 17.5357 23.1803 17.5424 23.3084 17.5202C23.3084 17.5202 23.9694 17.4904 24.789 17.1779C24.789 17.1779 26.6131 16.5981 27.5611 14.5262C27.5611 14.5262 28.3679 12.9119 27.7938 10.995Z" fill="#C4C4C4"/>
<path d="M25.9849 8.36872C26.1198 6.23433 24.2324 4.23966 23.7994 3.81173C23.7528 3.76569 23.6771 3.76973 23.636 3.8207C23.0338 4.56664 18.9729 9.70676 15.9361 16.3315H15.9376C15.889 16.436 15.9969 16.5275 16.0772 16.4812C22.4193 13.3249 24.2524 11.4437 24.5696 11.1833C24.6359 11.1289 25.9134 10.0588 25.9849 8.36872Z" fill="#C4C4C4"/>
<path d="M11.8361 15.8433C6.19166 12.8881 4.80046 11.3491 4.59358 11.1829C4.52364 11.1265 3.26851 10.0917 3.17729 8.37987C3.05993 6.82401 4.11414 5.27078 4.82693 4.41093C4.60993 4.12956 4.45081 3.93008 4.36358 3.82202C4.32207 3.77056 4.24557 3.76706 4.19914 3.81415C3.76366 4.25586 1.8572 6.31588 2.01284 8.38C2.10406 10.0918 3.35919 11.1266 3.42914 11.1831C3.48399 11.2274 5.32969 13.2004 11.9384 16.4912C11.9555 16.4949 12.0178 16.5164 12.0542 16.4712C12.0542 16.4712 12.1055 16.4303 12.0787 16.3654C11.9985 16.1902 11.9175 16.0164 11.8361 15.8433Z" fill="#C4C4C4"/>
<path d="M6.00496 17.5371C6.00496 17.5371 5.18192 17.5149 4.35614 17.1778C4.35614 17.1778 2.5748 16.5794 1.64156 14.6062C1.64156 14.6062 0.901096 13.2324 1.26635 11.4334C0.837714 11.2001 0.523207 11.0306 0.364012 10.9451C0.302707 10.9121 0.226035 10.9433 0.206403 11.01C-0.382964 13.0126 0.47716 14.6063 0.47716 14.6063C1.4104 16.5795 3.19179 17.1778 3.19179 17.1778C4.01757 17.5149 4.84061 17.5371 4.84061 17.5371C4.89596 17.5474 5.86108 17.5494 7.0467 17.548C6.44788 17.5469 6.0404 17.5436 6.00496 17.5371Z" fill="#C4C4C4"/>
<path d="M13.3675 14.4527C11.9592 12.2982 9.52683 8.31458 8.9291 5.66596C8.92866 5.6641 8.92828 5.66251 8.92773 5.66065C8.2011 3.18184 9.45251 0.866536 11.7353 0.273998C11.7353 0.273998 11.8784 0.241678 12.0766 0.199459C12.0427 0.14067 12.0148 0.0962834 11.9944 0.0653851C11.9714 0.0304398 11.9307 0.0117367 11.8892 0.0169867C11.4746 0.0698694 10.5709 0.274017 10.5709 0.274017C8.28811 0.866555 7.0367 3.1818 7.76333 5.66062C7.76388 5.66242 7.76426 5.66406 7.7647 5.66592C8.52644 9.04112 12.2675 14.5848 13.0721 15.7478C13.1281 15.805 13.1738 15.7808 13.1738 15.7808C13.2599 15.7589 13.2532 15.6748 13.2532 15.6748L13.2551 15.6758C13.2969 15.2574 13.334 14.8506 13.3675 14.4527Z" fill="#C4C4C4"/>
<path d="M17.0914 0.204374C16.8489 0.150397 16.4917 0.0766984 16.1169 0.0197141C15.8396 -0.0225046 13.5636 3.96251 14.7394 15.6853C14.7499 15.7621 14.8055 15.78 14.8055 15.78C14.8883 15.8133 14.9295 15.733 14.9295 15.733L14.9299 15.7342C15.1054 15.481 15.4111 15.033 15.7907 14.4531C15.0076 5.09436 16.5088 1.07133 17.0914 0.204374Z" fill="#C4C4C4"/>
<path d="M17.992 18.2152L16.8432 18.1755L16.8425 18.1771C16.8425 18.1771 16.8369 18.1779 16.8283 18.1802C16.7639 18.197 16.726 18.2693 16.755 18.3292C16.7602 18.34 16.7677 18.3503 16.7781 18.3589V18.36C17.6013 18.9511 20.1002 20.6982 21.3035 21.0361C21.3035 21.0361 21.8611 21.2258 22.66 20.9993C21.3667 20.5814 18.888 18.8567 17.992 18.2152Z" fill="#C4C4C4"/>
<path d="M27.9745 11.9147C27.9452 11.6202 27.8887 11.312 27.7938 10.995C27.7735 10.9274 27.6973 10.8945 27.6352 10.928C26.6814 11.4427 20.1538 14.9827 16.654 17.3412V17.3427C16.5589 17.4064 16.6177 17.5327 16.6971 17.5327C17.0537 17.5335 17.672 17.5345 18.3916 17.5352C21.2604 15.6616 25.5201 13.2672 27.9745 11.9147Z" fill="#C4C4C4"/>
<path d="M24.3418 4.40332C24.1064 4.12321 23.9075 3.91859 23.7994 3.81173C23.7528 3.76569 23.6771 3.76973 23.636 3.8207C23.0338 4.56664 18.9729 9.70676 15.9361 16.3315H15.9376C15.889 16.436 15.9969 16.5275 16.0772 16.4812C16.515 16.2633 16.9305 16.0518 17.3263 15.8462C19.8933 10.3949 23.0928 6.02179 24.3418 4.40332Z" fill="#C4C4C4"/>
<path d="M3.2559 25.2545H1.0794C1.04954 25.2545 1.02536 25.2303 1.02536 25.2005V23.4843C1.02536 23.4545 1.00119 23.4303 0.971333 23.4303H0.0540616C0.0242023 23.4303 3.0485e-05 23.4545 3.0485e-05 23.4843V27.8831C3.0485e-05 27.9129 0.0242023 27.9371 0.0540616 27.9371H0.971279C1.00114 27.9371 1.02531 27.9129 1.02531 27.8831V26.1104C1.02531 26.0806 1.04948 26.0564 1.07934 26.0564H3.25584C3.2857 26.0564 3.30988 26.0806 3.30988 26.1104V27.8831C3.30988 27.9129 3.33405 27.9371 3.36391 27.9371H4.28413C4.31399 27.9371 4.33816 27.9129 4.33816 27.8831V23.4843C4.33816 23.4545 4.31399 23.4303 4.28413 23.4303H3.36396C3.3341 23.4303 3.30993 23.4545 3.30993 23.4843V25.2005C3.30993 25.2303 3.28576 25.2545 3.2559 25.2545Z" fill="#C4C4C4"/>
<path d="M8.39227 26.1304C8.39227 26.9257 8.1488 27.2568 7.29923 27.2568C6.44994 27.2568 6.19892 26.9257 6.19892 26.1304V23.4837C6.19892 23.4539 6.17475 23.4297 6.14489 23.4297H5.23435C5.20449 23.4297 5.18032 23.4539 5.18032 23.4837V26.1535C5.18032 26.7251 5.23369 27.1217 5.45797 27.3636C5.85669 27.8062 6.44994 27.9843 7.29929 27.9843C8.14886 27.9843 8.73084 27.8062 9.13257 27.3636C9.35089 27.1269 9.41903 26.7297 9.41903 26.1535V23.4837C9.41903 23.4539 9.39486 23.4297 9.365 23.4297H8.44636C8.4165 23.4297 8.39233 23.4539 8.39233 23.4837L8.39227 26.1304Z" fill="#C4C4C4"/>
<path d="M11.6699 23.4608L9.65389 27.8596C9.63748 27.8954 9.66362 27.9361 9.703 27.9361H10.6689C10.691 27.9361 10.7108 27.9228 10.719 27.9024L11.1263 26.897C11.1346 26.8766 11.1544 26.8633 11.1764 26.8633H13.2224C13.2442 26.8633 13.2639 26.8763 13.2723 26.8965L13.6938 27.903C13.7022 27.9231 13.7218 27.9362 13.7436 27.9362H14.7659C14.8053 27.9362 14.8314 27.8953 14.8149 27.8595L12.7865 23.4608C12.7777 23.4417 12.7585 23.4294 12.7374 23.4294H11.7191C11.6979 23.4293 11.6787 23.4416 11.6699 23.4608ZM11.5036 25.9853L12.1379 24.4487C12.1562 24.4045 12.2187 24.404 12.2375 24.4481L12.8943 25.9847C12.9096 26.0203 12.8834 26.06 12.8446 26.06H11.5535C11.5151 26.06 11.4889 26.0209 11.5036 25.9853Z" fill="#C4C4C4"/>
<path d="M19.6454 26.7281L18.6169 23.4671C18.6098 23.4446 18.589 23.4293 18.5654 23.4293H17.436C17.4117 23.4293 17.3904 23.4456 17.3839 23.4691L16.492 26.7207C16.4778 26.7724 16.4051 26.7741 16.3885 26.7231L15.3273 23.4666C15.32 23.4444 15.2993 23.4293 15.2759 23.4293H14.2909C14.2535 23.4293 14.2274 23.4665 14.2401 23.5017L15.8264 27.9005C15.8341 27.9219 15.8545 27.9362 15.8773 27.9362H17.0475C17.072 27.9362 17.0933 27.9198 17.0997 27.8962L17.9497 24.7516C17.9638 24.6993 18.0375 24.698 18.0535 24.7497L19.0262 27.8981C19.0332 27.9207 19.0541 27.9362 19.0778 27.9362H20.2576C20.2808 27.9362 20.3015 27.9213 20.3088 27.8993L21.7787 23.5006C21.7904 23.4656 21.7644 23.4294 21.7274 23.4294H20.7917C20.7679 23.4294 20.7469 23.445 20.74 23.4678L19.7487 26.7276C19.7332 26.7783 19.6614 26.7787 19.6454 26.7281Z" fill="#C4C4C4"/>
<path d="M22.0234 25.7651C22.0234 26.5811 22.2677 27.1721 22.7703 27.5404C23.2455 27.8908 23.701 27.9361 24.2917 27.9361H25.9699C25.9997 27.9361 26.0239 27.912 26.0239 27.8821V27.2061C26.0239 27.1763 25.9997 27.1521 25.9699 27.1521H24.34C23.5516 27.1521 23.2017 26.8688 23.1795 26.1029C23.1786 26.0726 23.2034 26.0474 23.2337 26.0474H25.9699C25.9997 26.0474 26.0239 26.0232 26.0239 25.9933V25.3151C26.0239 25.2853 25.9997 25.2611 25.9699 25.2611H23.2438C23.2123 25.2611 23.1869 25.234 23.1897 25.2026C23.2488 24.5355 23.6197 24.2156 24.34 24.2156H25.9699C25.9997 24.2156 26.0239 24.1914 26.0239 24.1616V23.4834C26.0239 23.4535 25.9997 23.4294 25.9699 23.4294H24.3189C22.7499 23.4293 22.0234 24.1726 22.0234 25.7651Z" fill="#C4C4C4"/>
<path d="M26.9289 23.4834V27.8818C26.9289 27.9116 26.9531 27.9358 26.9829 27.9358H27.9459C27.9758 27.9358 28 27.9116 28 27.8818V23.4834C28 23.4535 27.9758 23.4293 27.9459 23.4293H26.9829C26.9531 23.4293 26.9289 23.4535 26.9289 23.4834Z" fill="#C4C4C4"/>
<path d="M3.90308 18.8092C3.90018 18.8047 3.85069 18.7395 3.80694 18.6534C3.80262 18.6461 3.79813 18.6389 3.79381 18.6317C3.78731 18.6208 3.78353 18.6094 3.78107 18.5979C3.75788 18.5431 3.74055 18.4839 3.73924 18.4283L2.72032 18.4639C2.63599 18.4668 2.58623 18.5592 2.62932 18.6317C3.56666 20.2089 5.0788 21.4003 6.65145 21.0341C5.57777 20.7908 4.60013 19.9088 3.90308 18.8092Z" fill="#C4C4C4"/>
</svg>
