<svg width="22" height="22" viewBox="0 0 22 22" fill="none" xmlns="http://www.w3.org/2000/svg">
<path d="M8.17311 22C5.09415 21.9811 2.5473 15.2972 2.5473 11.8933C2.5473 6.33297 6.46969 5.11566 7.98134 5.11566C8.66258 5.11566 9.39001 5.40016 10.0316 5.65191C10.4803 5.82752 10.9443 6.00881 11.2024 6.00881C11.3568 6.00881 11.7209 5.85459 12.0422 5.71929C12.7276 5.42912 13.5805 5.06848 14.5737 5.06848C14.5755 5.06848 14.5779 5.06848 14.5796 5.06848C15.3212 5.06848 17.5698 5.24156 18.9216 7.40048L19.2383 7.90652L18.7826 8.27223C18.1315 8.79465 16.9436 9.74761 16.9436 11.6353C16.9436 13.871 18.2889 14.7308 18.9352 15.1443C19.2206 15.3268 19.5159 15.515 19.5159 15.9267C19.5159 16.1955 17.4987 21.9666 14.5695 21.9666C13.8528 21.9666 13.3461 21.7375 12.8992 21.5355C12.4471 21.3309 12.057 21.1547 11.4124 21.1547C11.0857 21.1547 10.6726 21.319 10.2352 21.4933C9.63745 21.7306 8.9609 22 8.19323 22H8.17311Z" fill="#DFDFDF"/>
<path d="M14.884 0C14.9603 2.92514 12.9931 4.95447 11.0283 4.8272C10.7045 2.49283 12.9929 0 14.884 0Z" fill="#DFDFDF"/>
</svg>
