<svg width="27" height="27" viewBox="0 0 27 27" fill="none" xmlns="http://www.w3.org/2000/svg">
<path d="M9.92352 20.4194C8.36858 20.4194 7.10806 21.6749 7.10806 23.2234C7.1083 24.772 8.36882 26.027 9.92376 26.027C11.4787 26.027 12.7392 24.7717 12.7392 23.2232C12.7373 21.6754 11.4778 20.421 9.92352 20.4194ZM9.92352 24.8095C9.04385 24.8095 8.33062 24.0992 8.33062 23.223C8.33085 22.3469 9.04385 21.6369 9.92376 21.6369C10.8034 21.6369 11.5167 22.3472 11.5167 23.2232C11.5155 24.099 10.803 24.8086 9.92352 24.8095Z" fill="#251C41"/>
<path d="M21.0046 20.4194C19.4497 20.4194 18.1892 21.6747 18.1892 23.2232C18.1892 24.7717 19.4497 26.027 21.0046 26.027C22.5596 26.027 23.8201 24.7717 23.8201 23.2232C23.8182 21.6754 22.5589 20.4213 21.0046 20.4194ZM21.0046 24.8095C20.1247 24.8095 19.4117 24.0992 19.4117 23.2232C19.4117 22.3469 20.125 21.6369 21.0046 21.6369C21.8843 21.6369 22.5975 22.3472 22.5975 23.2232C22.5966 24.099 21.8838 24.8086 21.0046 24.8095Z" fill="#251C41"/>
<path d="M25.578 5.43171H6.41034L5.99462 2.99386C5.74844 1.52858 4.47335 0.456373 2.98169 0.459464H1.23286C0.895225 0.459464 0.621582 0.731974 0.621582 1.06821C0.621582 1.40445 0.895225 1.67696 1.23286 1.67696H2.98145C3.87664 1.67506 4.64169 2.31853 4.7895 3.19765L7.00275 16.183C7.24918 17.6485 8.5245 18.721 10.0164 18.7174H23.0471C23.3845 18.7174 23.6584 18.4449 23.6584 18.1087C23.6584 17.7724 23.3845 17.4999 23.0471 17.4999H10.0162C9.12121 17.5021 8.35616 16.8586 8.20836 15.9795L7.98581 14.6738H20.763C22.3578 14.6773 23.7711 13.6508 24.2551 12.1375L26.1599 6.22641C26.2196 6.04117 26.1869 5.83881 26.0718 5.68163C25.9567 5.52444 25.7733 5.43171 25.578 5.43171ZM23.0911 11.7655C22.7682 12.7745 21.826 13.4586 20.7627 13.4563H7.77831L6.61784 6.6492H24.7396L23.0911 11.7655Z" fill="#251C41"/>
</svg>
