<svg width="24" height="22" viewBox="0 0 24 22" fill="none" xmlns="http://www.w3.org/2000/svg">
<path d="M12 21.7027C11.6691 21.7027 11.3501 21.5814 11.1015 21.3611C10.1625 20.5306 9.25725 19.7501 8.45855 19.0616L8.45447 19.058C6.1128 17.0393 4.09068 15.296 2.68373 13.5787C1.11098 11.6589 0.378418 9.83863 0.378418 7.8501C0.378418 5.91808 1.0333 4.13567 2.22231 2.83097C3.42551 1.51085 5.07647 0.783783 6.8716 0.783783C8.2133 0.783783 9.44203 1.21288 10.5236 2.05906C11.0694 2.48619 11.5642 3.00893 12 3.61867C12.4361 3.00893 12.9307 2.48619 13.4767 2.05906C14.5582 1.21288 15.787 0.783783 17.1287 0.783783C18.9236 0.783783 20.5747 1.51085 21.7779 2.83097C22.967 4.13567 23.6217 5.91808 23.6217 7.8501C23.6217 9.83863 22.8893 11.6589 21.3165 13.5785C19.9096 15.296 17.8876 17.0391 15.5463 19.0576C14.7462 19.7472 13.8395 20.529 12.8984 21.3615C12.65 21.5814 12.3308 21.7027 12 21.7027ZM6.8716 2.16113C5.46128 2.16113 4.16569 2.73051 3.22318 3.76451C2.26665 4.81412 1.73979 6.26502 1.73979 7.8501C1.73979 9.52254 2.35425 11.0183 3.73194 12.6999C5.06353 14.3253 7.04415 16.0328 9.3374 18.0098L9.34166 18.0134C10.1434 18.7046 11.0522 19.4881 11.9981 20.3248C12.9497 19.4865 13.8599 18.7017 14.6632 18.0094C16.9563 16.0324 18.9367 14.3253 20.2683 12.6999C21.6458 11.0183 22.2603 9.52254 22.2603 7.8501C22.2603 6.26502 21.7334 4.81412 20.7769 3.76451C19.8346 2.73051 18.5388 2.16113 17.1287 2.16113C16.0955 2.16113 15.147 2.49336 14.3094 3.14849C13.563 3.73258 13.0431 4.47095 12.7383 4.98759C12.5815 5.25326 12.3056 5.41184 12 5.41184C11.6945 5.41184 11.4186 5.25326 11.2618 4.98759C10.9572 4.47095 10.4372 3.73258 9.69065 3.14849C8.85311 2.49336 7.90456 2.16113 6.8716 2.16113Z" fill="#251C41"/>
</svg>
