<svg width="24" height="24" viewBox="0 0 24 24" fill="none" xmlns="http://www.w3.org/2000/svg">
<path d="M11.0512 0.909088C5.45899 0.909088 0.909119 5.45897 0.909119 11.0511C0.909119 16.6436 5.45899 21.1932 11.0512 21.1932C16.6437 21.1932 21.1932 16.6436 21.1932 11.0511C21.1932 5.45897 16.6437 0.909088 11.0512 0.909088ZM11.0512 19.3209C6.49131 19.3209 2.7815 15.6111 2.7815 11.0512C2.7815 6.49133 6.49131 2.78147 11.0512 2.78147C15.611 2.78147 19.3208 6.49128 19.3208 11.0511C19.3208 15.611 15.611 19.3209 11.0512 19.3209Z" fill="#251C41"/>
<path d="M23.6651 22.3413L18.2976 16.9738C17.9319 16.6081 17.3396 16.6081 16.9738 16.9738C16.6081 17.3392 16.6081 17.9322 16.9738 18.2976L22.3413 23.6651C22.5242 23.8479 22.7636 23.9394 23.0032 23.9394C23.2426 23.9394 23.4822 23.8479 23.6651 23.6651C24.0309 23.2997 24.0309 22.7067 23.6651 22.3413Z" fill="#251C41"/>
</svg>
