<svg width="25" height="22" viewBox="0 0 25 22" fill="none" xmlns="http://www.w3.org/2000/svg">
<path d="M24.043 13.0046L21.2592 7.01287L22.4609 7.35925C22.7248 7.43536 23.0002 7.28217 23.0757 7.01677C23.1515 6.75157 22.999 6.47505 22.7351 6.39894L14.3796 3.98947C14.3813 3.95356 14.3823 3.91765 14.3823 3.88155C14.3825 2.88455 13.7127 2.01322 12.7526 1.76206C11.7925 1.51072 10.7848 1.94297 10.301 2.81332L1.94469 0.40404C1.68078 0.327933 1.40541 0.481318 1.32967 0.746522C1.25413 1.01173 1.40657 1.28825 1.67049 1.36436L3.31961 1.83993L0.333049 8.26805C0.133802 8.33811 0.000194459 8.52701 2.61554e-07 8.73933C-0.000582334 10.3612 0.972153 11.8232 2.46379 12.4424C3.95542 13.0618 5.67154 12.716 6.81032 11.5668C7.56905 10.8235 7.99764 9.80424 7.99958 8.73933C7.99958 8.51569 7.85141 8.31937 7.63721 8.25868L4.86154 2.28467L10.026 3.77363C10.0243 3.80954 10.0233 3.84545 10.0233 3.88174C10.0249 4.89826 10.7211 5.78052 11.7056 6.01352V15.9092H10.3334C9.23701 15.9092 8.32506 16.7934 8.32506 17.8954V18.1854C7.40242 18.3805 6.74002 19.1959 6.73419 20.1435V20.8429C6.74254 21.1249 6.97033 21.3505 7.25114 21.3546H17.1544C17.4353 21.3505 17.663 21.1249 17.6714 20.8429V20.1435C17.6656 19.1959 17.0032 18.3805 16.0805 18.1854V17.8954C16.0805 16.7934 15.1684 15.9092 14.0721 15.9092H12.6999V6.01352C13.2957 5.87204 13.8051 5.48604 14.1046 4.94959L19.7316 6.57223L16.7389 13.014C16.5394 13.0841 16.4058 13.273 16.4056 13.4851C16.4052 15.107 17.378 16.569 18.8696 17.1882C20.3612 17.8076 22.0772 17.462 23.2159 16.3128C23.9747 15.5693 24.4035 14.55 24.4054 13.4851C24.4052 13.2615 24.2572 13.0653 24.043 13.0046ZM3.98727 2.74053L6.53106 8.21575H1.44367L3.98727 2.74053ZM3.98727 11.7227C2.52302 11.7313 1.27064 10.6674 1.03566 9.2149H6.9616C6.70856 10.6662 5.45365 11.7245 3.98727 11.7227ZM16.6771 20.1435V20.3554H7.72848V20.1435C7.72848 19.5926 8.19456 19.1564 8.74258 19.1564H15.663C16.211 19.1564 16.6771 19.5926 16.6771 20.1435ZM15.0862 17.8954V18.1573H9.31935V17.8954C9.31935 17.3445 9.78542 16.9084 10.3334 16.9084H14.0721C14.6202 16.9084 15.0862 17.3445 15.0862 17.8954ZM12.2028 5.07253C11.6973 5.07292 11.2471 4.75132 11.0815 4.27145C10.9158 3.79159 11.071 3.25903 11.468 2.94465C11.8651 2.63027 12.4168 2.60334 12.8423 2.87772C13.2678 3.1519 13.4734 3.66689 13.3548 4.16061C13.3422 4.19222 13.3328 4.22481 13.3268 4.25818C13.165 4.7441 12.7126 5.07194 12.2028 5.07253ZM22.9369 12.9617H17.8495L20.3931 7.48649L22.9369 12.9617ZM20.3931 16.4687C18.9288 16.4773 17.6764 15.4133 17.4415 13.9609H23.3674C23.1144 15.4122 21.8595 16.4704 20.3931 16.4687Z" fill="#251C41"/>
</svg>
