<svg width="39" height="42" viewBox="0 0 39 42" fill="none" xmlns="http://www.w3.org/2000/svg">
<g clip-path="url(#clip0)">
<path d="M38.9761 17.3266C38.1717 12.3305 18.7648 13.1135 6.56314 18.6413L5.59347 19.0994C1.91079 20.9179 -0.253865 22.938 0.0238576 24.6731C0.833184 29.7043 20.4159 28.8571 32.5464 23.3084L33.9929 22.6017C37.3173 20.8619 39.2391 18.9679 38.9761 17.3266Z" fill="#C4C4C4"/>
<path d="M2.02733 24.673C1.74961 22.9379 3.91426 20.9177 7.59694 19.0993L8.56661 18.6413C14.6287 15.8949 23.0727 14.1589 29.8509 14.0003C22.6081 13.8209 13.1024 15.6788 6.56314 18.6413L5.59347 19.0993C1.91079 20.9178 -0.253865 22.9379 0.0238576 24.673C0.390244 26.9507 4.86831 28.1465 11.1473 27.9994C5.9367 27.8701 2.35342 26.7002 2.02733 24.673Z" fill="#C4C4C4"/>
<path d="M32.6455 20.8213V21.247C32.6455 21.3168 32.6981 21.3734 32.7629 21.3734H32.9881C33.0313 21.3734 33.0664 21.4112 33.0664 21.4578V22.0181C33.0684 22.0758 33.0652 22.1378 33.0565 22.1874C33.0391 22.3079 32.934 22.5117 32.6352 22.5117C32.3377 22.5117 32.2345 22.3079 32.2159 22.1874C32.2084 22.1378 32.2048 22.0759 32.2048 22.0181V19.983C32.2048 19.9104 32.2096 19.8322 32.2238 19.7733C32.2441 19.6647 32.333 19.4502 32.6329 19.4502C32.9475 19.4502 33.0257 19.6754 33.0431 19.7733C33.0554 19.8369 33.0566 19.9446 33.0566 19.9446V20.0769C33.0566 20.14 33.1041 20.1911 33.1627 20.1911H33.9591C34.0324 20.1911 34.0918 20.1271 34.0918 20.0482V20.045C34.0918 20.045 34.0961 19.8925 34.0839 19.7502C34.0065 18.9149 33.3709 18.6517 32.6413 18.6517C31.9112 18.6517 31.2887 18.9179 31.1983 19.7502C31.1903 19.8271 31.1776 19.9642 31.1776 20.045V21.9177C31.1776 21.9984 31.1796 22.0617 31.1935 22.2112C31.2581 22.9884 31.8576 23.2849 32.5464 23.3085L33.993 22.6018C34.0406 22.4881 34.0724 22.3582 34.0859 22.2112C34.097 22.0617 34.0981 21.9984 34.1009 21.9177V20.8264C34.1009 20.7698 34.0584 20.7239 34.0058 20.7239H32.7361C32.686 20.7238 32.6455 20.7675 32.6455 20.8213Z" fill="#F2F2F2"/>
<path d="M8.2767 21.6514C8.1041 20.7161 6.54372 20.4401 6.42664 19.9184C6.4076 19.8291 6.41194 19.7343 6.42268 19.6851C6.45162 19.5429 6.54014 19.3847 6.79844 19.3847C7.04005 19.3847 7.18173 19.5471 7.18173 19.7898V19.9677C7.18173 20.0214 7.22218 20.065 7.27215 20.065H8.07782C8.14934 20.065 8.20731 20.0026 8.20731 19.9256V19.7514C8.20731 18.7841 7.40111 18.6294 6.81908 18.6294C6.7314 18.6294 6.64571 18.6328 6.56314 18.6414L5.59347 19.0994C5.48752 19.237 5.41454 19.4071 5.38278 19.6186C5.35262 19.8185 5.34782 19.9937 5.39108 20.2189C5.56879 21.1286 7.03084 21.393 7.24351 21.9681C7.28319 22.0759 7.27047 22.2126 7.25105 22.2968C7.2173 22.4472 7.12445 22.5976 6.84955 22.5976C6.59323 22.5976 6.4389 22.436 6.4389 22.1929L6.43761 21.8532C6.43746 21.8041 6.40044 21.7644 6.35481 21.7644H5.44532C5.38408 21.7644 5.33441 21.8179 5.33441 21.8838V22.1049C5.33441 23.1 6.05614 23.3995 6.8286 23.3995C7.57211 23.3995 8.18271 23.1256 8.28188 22.3804C8.33147 21.9967 8.29415 21.7454 8.2767 21.6514Z" fill="#F2F2F2"/>
<path d="M11.2077 23.1311L10.6888 19.3141C10.6839 19.2778 10.6354 19.2777 10.6303 19.314L10.0969 23.144C10.0906 23.1897 10.0541 23.2234 10.0112 23.2234H9.05755C9.01482 23.2234 8.98252 23.1816 8.99021 23.1363L9.71369 18.9075C9.72725 18.8284 9.79139 18.7709 9.86611 18.7709H11.4567C11.5193 18.7709 11.573 18.819 11.5844 18.8854L12.308 23.1326C12.316 23.1798 12.2823 23.2235 12.2376 23.2235H11.3066C11.257 23.2233 11.2149 23.1841 11.2077 23.1311Z" fill="#F2F2F2"/>
<path d="M16.6844 23.0783L16.6587 19.3116C16.6585 19.2873 16.6258 19.2842 16.6218 19.3081L15.9656 23.1317C15.9564 23.1848 15.9135 23.2233 15.8634 23.2233H15.0359C14.9611 23.2233 14.897 23.1658 14.8833 23.0866L14.2394 19.33C14.2349 19.3036 14.1988 19.3071 14.1986 19.3339L14.1727 23.1351C14.1723 23.1839 14.1355 23.2233 14.0901 23.2233H13.2528C13.1932 23.2233 13.1451 23.1705 13.1464 23.1063L13.2311 18.9016C13.2325 18.8289 13.2877 18.7708 13.3553 18.7708H14.7958C14.8621 18.7708 14.9185 18.8226 14.929 18.8931L15.3894 21.9808C15.3968 22.0302 15.4627 22.0302 15.4701 21.9808L15.9319 18.8834C15.9416 18.8185 15.9935 18.7708 16.0546 18.7708H17.5353C17.5845 18.7708 17.6247 18.8132 17.6257 18.8662L17.713 23.0701C17.7148 23.1542 17.652 23.2234 17.5739 23.2234H16.8202C16.7456 23.2233 16.685 23.1586 16.6844 23.0783Z" fill="#F2F2F2"/>
<path d="M21.6377 22.3676C21.5405 23.1047 20.9338 23.3751 20.1986 23.3751C19.4321 23.3751 18.7199 23.079 18.7199 22.095V21.8479C18.7199 21.7966 18.7586 21.7549 18.8063 21.7549H19.7097C19.7661 21.7549 19.8118 21.8041 19.8118 21.8649V22.1822C19.8118 22.4223 19.9662 22.5817 20.2217 22.5817C20.4951 22.5817 20.5867 22.4334 20.6181 22.2856C20.6372 22.2035 20.6474 22.066 20.6106 21.9583C20.4011 21.3895 18.9538 21.1281 18.7776 20.2278C18.7319 20.0052 18.7387 19.8305 18.7673 19.6343C18.8764 18.9135 19.4675 18.6545 20.1912 18.6545C20.7673 18.6545 21.5612 18.8049 21.5612 19.765V19.9511C21.5612 20.0189 21.5102 20.0738 21.4472 20.0738H20.6524C20.5943 20.0738 20.5472 20.0232 20.5472 19.9606V19.8022C20.5472 19.5625 20.408 19.4018 20.1707 19.4018C19.916 19.4018 19.8275 19.5573 19.7973 19.6996C19.7878 19.7479 19.7834 19.8415 19.8012 19.9304C19.9182 20.4448 21.4605 20.7225 21.6303 21.6463C21.6487 21.7391 21.6837 21.9869 21.6377 22.3676Z" fill="#F2F2F2"/>
<path d="M25.4953 22.2569C25.4223 23.0887 24.8176 23.3584 24.0602 23.3584C23.3036 23.3584 22.6985 23.0887 22.6271 22.2569C22.6224 22.2124 22.6168 22.0449 22.6179 21.963V18.9418C22.6179 18.8474 22.689 18.7709 22.7767 18.7709H23.5136C23.593 18.7709 23.6575 18.8403 23.6575 18.9258V22.0651C23.6555 22.1219 23.6575 22.1873 23.6677 22.2343C23.6876 22.3446 23.7764 22.5573 24.0601 22.5573C24.347 22.5573 24.433 22.3446 24.4549 22.2343C24.4641 22.1873 24.466 22.1219 24.4641 22.0651V18.9074C24.4641 18.832 24.5208 18.7709 24.5908 18.7709H25.362C25.4401 18.7709 25.5035 18.8391 25.5035 18.9233V21.963C25.508 22.0449 25.5016 22.2124 25.4953 22.2569Z" fill="#F2F2F2"/>
<path d="M29.9685 23.1768H28.7299C28.6741 23.1768 28.6249 23.1375 28.6088 23.08L27.6642 19.7226C27.653 19.683 27.5987 19.6921 27.5994 19.7335L27.6518 23.0336C27.653 23.1123 27.5942 23.1768 27.5212 23.1768H26.7743C26.7028 23.1768 26.6448 23.1143 26.6448 23.0374V18.9189C26.6448 18.8371 26.7065 18.7708 26.7824 18.7708H28.0352C28.1155 18.7708 28.1862 18.8279 28.2086 18.9109L29.0935 22.1879C29.1006 22.2141 29.1365 22.2083 29.1361 22.1811L29.086 18.9223C29.0847 18.839 29.1471 18.7707 29.2244 18.7707H29.9949C30.0528 18.7707 30.0998 18.8213 30.0998 18.8836V23.0355C30.0995 23.1137 30.0409 23.1768 29.9685 23.1768Z" fill="#F2F2F2"/>
</g>
<defs>
<clipPath id="clip0">
<rect width="39" height="42" fill="white"/>
</clipPath>
</defs>
</svg>
