<svg width="28" height="28" viewBox="0 0 28 28" fill="none" xmlns="http://www.w3.org/2000/svg">
<path d="M26.1382 14.3626C26.0255 14.1321 26.0255 13.8678 26.1382 13.6373L27.1825 11.501C27.7639 10.3115 27.3033 8.8937 26.1337 8.27317L24.0332 7.15864C23.8066 7.03844 23.6512 6.8245 23.6068 6.5719L23.196 4.22971C22.9673 2.92564 21.761 2.04933 20.4503 2.23477L18.0958 2.56782C17.8417 2.60369 17.5904 2.52199 17.4061 2.34365L15.697 0.690351C14.7454 -0.230253 13.2547 -0.230307 12.3031 0.690351L10.594 2.34382C10.4096 2.52221 10.1583 2.60375 9.90425 2.56798L7.54981 2.23494C6.23868 2.04938 5.03283 2.9258 4.80407 4.22987L4.39326 6.57196C4.34891 6.82461 4.19355 7.03849 3.96698 7.15875L1.86644 8.27328C0.696903 8.89376 0.236218 10.3116 0.817652 11.5011L1.8619 13.6374C1.97456 13.8679 1.97456 14.1323 1.8619 14.3627L0.817597 16.499C0.236163 17.6885 0.696848 19.1063 1.86639 19.7268L3.96692 20.8414C4.19355 20.9616 4.34891 21.1755 4.39326 21.4281L4.80407 23.7703C5.01232 24.9575 6.03027 25.79 7.20019 25.7899C7.31542 25.7899 7.43234 25.7818 7.54986 25.7652L9.90431 25.4321C10.1582 25.3961 10.4097 25.478 10.5941 25.6563L12.3031 27.3096C12.779 27.77 13.3894 28.0001 14.0001 28C14.6105 28 15.2213 27.7699 15.697 27.3096L17.4061 25.6563C17.5905 25.478 17.8418 25.3965 18.0958 25.4321L20.4503 25.7652C21.7616 25.9507 22.9673 25.0743 23.196 23.7703L23.6069 21.4282C23.6512 21.1755 23.8066 20.9616 24.0332 20.8414L26.1337 19.7268C27.3033 19.1064 27.7639 17.6885 27.1825 16.499L26.1382 14.3626ZM10.7702 6.73285C12.4027 6.73285 13.7309 8.06104 13.7309 9.69356C13.7309 11.3261 12.4027 12.6543 10.7702 12.6543C9.13765 12.6543 7.80946 11.3261 7.80946 9.69356C7.80946 8.06104 9.13765 6.73285 10.7702 6.73285ZM9.24199 19.8999C9.08433 20.0575 8.87767 20.1364 8.67106 20.1364C8.46445 20.1364 8.25773 20.0576 8.10013 19.8999C7.7848 19.5846 7.7848 19.0733 8.10013 18.758L18.7581 8.10003C19.0733 7.7847 19.5847 7.7847 19.9 8.10003C20.2153 8.41535 20.2153 8.92662 19.9 9.24195L9.24199 19.8999ZM17.2298 21.2672C15.5973 21.2672 14.2691 19.939 14.2691 18.3065C14.2691 16.6739 15.5973 15.3457 17.2298 15.3457C18.8623 15.3457 20.1905 16.6739 20.1905 18.3065C20.1905 19.939 18.8623 21.2672 17.2298 21.2672Z" fill="#C4C4C4"/>
<path d="M17.2298 16.9607C16.4878 16.9607 15.884 17.5644 15.884 18.3064C15.884 19.0485 16.4877 19.6522 17.2298 19.6522C17.9719 19.6522 18.5756 19.0485 18.5756 18.3064C18.5756 17.5644 17.9719 16.9607 17.2298 16.9607Z" fill="#C4C4C4"/>
<path d="M10.7702 8.34774C10.0281 8.34774 9.42443 8.95144 9.42443 9.69349C9.42443 10.4355 10.0281 11.0393 10.7702 11.0393C11.5122 11.0393 12.116 10.4356 12.116 9.69349C12.1159 8.95149 11.5122 8.34774 10.7702 8.34774Z" fill="#C4C4C4"/>
</svg>
