<svg width="19" height="17" viewBox="0 0 19 17" fill="none" xmlns="http://www.w3.org/2000/svg">
<g opacity="0.3">
<path d="M18.2083 9.48089H0.791667C0.354665 9.48089 0 9.04151 0 8.50012C0 7.95873 0.354665 7.51935 0.791667 7.51935H18.2083C18.6453 7.51935 19 7.95873 19 8.50012C19 9.04151 18.6453 9.48089 18.2083 9.48089Z" fill="#251C41"/>
<path d="M18.2083 1.96155H0.791667C0.354665 1.96155 0 1.52216 0 0.980774C0 0.439385 0.354665 0 0.791667 0H18.2083C18.6453 0 19 0.439385 19 0.980774C19 1.52216 18.6453 1.96155 18.2083 1.96155Z" fill="#251C41"/>
<path d="M18.2083 17H0.791667C0.354665 17 0 16.5606 0 16.0192C0 15.4778 0.354665 15.0385 0.791667 15.0385H18.2083C18.6453 15.0385 19 15.4778 19 16.0192C19 16.5606 18.6453 17 18.2083 17Z" fill="#251C41"/>
</g>
</svg>
