<svg width="16" height="19" viewBox="0 0 16 19" fill="none" xmlns="http://www.w3.org/2000/svg">
<path opacity="0.3" d="M0.0546875 4.21875C0.0546875 3.16406 0.398438 2.3125 1.08594 1.66406C1.77344 1.01563 2.69531 0.691406 3.85156 0.691406C5.02344 0.691406 5.94922 1.01563 6.62891 1.66406C7.30859 2.30469 7.64844 3.17578 7.64844 4.27734V5.12109C7.64844 6.17578 7.30859 7.02344 6.62891 7.66406C5.94922 8.30469 5.03125 8.625 3.875 8.625C2.72656 8.625 1.80078 8.30859 1.09766 7.67578C0.402344 7.03516 0.0546875 6.16016 0.0546875 5.05078V4.21875ZM2.59766 5.12109C2.59766 5.52734 2.71094 5.85938 2.9375 6.11719C3.16406 6.36719 3.47656 6.49219 3.875 6.49219C4.69531 6.49219 5.10547 5.96875 5.10547 4.92188V4.21875C5.10547 3.8125 4.99609 3.48047 4.77734 3.22266C4.55859 2.95703 4.25 2.82422 3.85156 2.82422C3.46875 2.82422 3.16406 2.95312 2.9375 3.21094C2.71094 3.46094 2.59766 3.80469 2.59766 4.24219V5.12109ZM8.16406 13.8164C8.16406 12.7539 8.50781 11.9023 9.19531 11.2617C9.89062 10.6211 10.8125 10.3008 11.9609 10.3008C13.125 10.3008 14.0508 10.6172 14.7383 11.25C15.4258 11.8828 15.7695 12.7656 15.7695 13.8984V14.7188C15.7695 15.7812 15.4297 16.6328 14.75 17.2734C14.0703 17.9141 13.1484 18.2344 11.9844 18.2344C10.8359 18.2344 9.91016 17.918 9.20703 17.2852C8.51172 16.6445 8.16406 15.7695 8.16406 14.6602V13.8164ZM10.6953 14.7188C10.6953 15.0859 10.8203 15.4102 11.0703 15.6914C11.3203 15.9648 11.625 16.1016 11.9844 16.1016C12.7422 16.1016 13.1523 15.7422 13.2148 15.0234L13.2266 13.8164C13.2266 13.4023 13.1133 13.0703 12.8867 12.8203C12.6602 12.5625 12.3516 12.4336 11.9609 12.4336C11.5859 12.4336 11.2852 12.5547 11.0586 12.7969C10.832 13.0312 10.7109 13.3516 10.6953 13.7578V14.7188ZM4.625 16.7227L2.78516 15.7969L11.1172 2.46094L12.957 3.38672L4.625 16.7227Z" fill="#353535"/>
</svg>
