<svg width="26" height="26" viewBox="0 0 26 26" fill="none" xmlns="http://www.w3.org/2000/svg">
<path opacity="0.2" fill-rule="evenodd" clip-rule="evenodd" d="M13 26C20.1797 26 26 20.1797 26 13C26 5.8203 20.1797 0 13 0C5.8203 0 0 5.8203 0 13C0 20.1797 5.8203 26 13 26ZM4.31354 12.5743L18.1635 7.07432C18.9135 6.77432 19.6635 7.42432 19.5135 8.27432L16.8135 19.8743C16.7135 20.2243 16.3135 20.3743 16.0135 20.1743L12.1135 17.3243L10.0635 19.2243C9.81354 19.4743 9.36354 19.3743 9.26354 19.0243L7.86354 14.6243L4.36354 13.5243C3.91354 13.3743 3.86354 12.7243 4.31354 12.5743ZM9.61354 18.0743L10.0635 15.4743L18.3635 8.07432L8.61354 14.4743L9.61354 18.0743Z" fill="white"/>
</svg>
