<svg width="14" height="15" viewBox="0 0 14 15" fill="none" xmlns="http://www.w3.org/2000/svg">
<path d="M13.9642 5.85812C13.8743 5.57618 13.6276 5.37593 13.3357 5.34926L9.37088 4.98436L7.80308 1.26484C7.68748 0.992248 7.42421 0.815796 7.13169 0.815796C6.83918 0.815796 6.5759 0.992248 6.4603 1.26548L4.8925 4.98436L0.927045 5.34926C0.635683 5.37657 0.389598 5.57618 0.29915 5.85812C0.208702 6.14006 0.292232 6.4493 0.51264 6.64424L3.50958 9.30833L2.62585 13.2541C2.56119 13.5442 2.67228 13.8441 2.90977 14.0181C3.03743 14.1116 3.18678 14.1592 3.33738 14.1592C3.46724 14.1592 3.59605 14.1237 3.71165 14.0536L7.13169 11.9818L10.5505 14.0536C10.8006 14.2062 11.116 14.1923 11.353 14.0181C11.5906 13.8436 11.7016 13.5436 11.6369 13.2541L10.7532 9.30833L13.7501 6.64477C13.9705 6.4493 14.0547 6.14059 13.9642 5.85812Z" fill="#D5D5D5"/>
</svg>
