<svg width="24" height="24" viewBox="0 0 24 24" fill="none" xmlns="http://www.w3.org/2000/svg">
<path d="M18.9778 14.8671C18.4857 14.3555 17.8922 14.082 17.2632 14.082C16.6392 14.082 16.0406 14.3505 15.5283 14.8621L13.9253 16.4577C13.7934 16.3868 13.6615 16.3209 13.5347 16.2551C13.3521 16.1639 13.1796 16.0778 13.0325 15.9866C11.531 15.0343 10.1664 13.7933 8.85761 12.1876C8.22352 11.3872 7.79741 10.7135 7.48797 10.0297C7.90394 9.64981 8.28947 9.25471 8.66485 8.87481C8.80689 8.73298 8.94892 8.58608 9.09096 8.44425C10.1562 7.38053 10.1562 6.00275 9.09096 4.93902L7.7061 3.55617C7.54884 3.39915 7.38651 3.23705 7.23433 3.07496C6.92997 2.76091 6.61038 2.43673 6.28065 2.1328C5.7886 1.64653 5.20016 1.38819 4.58128 1.38819C3.9624 1.38819 3.36382 1.64653 2.85654 2.1328C2.85147 2.13787 2.85147 2.13787 2.8464 2.14293L1.12166 3.88036C0.472349 4.52872 0.102038 5.31892 0.0208736 6.23575C-0.100872 7.71484 0.335384 9.09262 0.670186 9.99426C1.49197 12.2078 2.71958 14.2593 4.55084 16.4577C6.77271 19.1069 9.44605 21.1988 12.4999 22.6729C13.6666 23.225 15.2239 23.8784 16.9639 23.9899C17.0704 23.9949 17.182 24 17.2835 24C18.4553 24 19.4394 23.5796 20.2104 22.7438C20.2155 22.7337 20.2257 22.7286 20.2307 22.7185C20.4945 22.3993 20.7989 22.1106 21.1185 21.8016C21.3366 21.5939 21.5598 21.3761 21.7779 21.1482C22.2801 20.6265 22.5439 20.0186 22.5439 19.3956C22.5439 18.7675 22.2751 18.1647 21.7627 17.6582L18.9778 14.8671ZM20.7938 20.201C20.7887 20.206 20.7887 20.201 20.7938 20.201C20.596 20.4137 20.3931 20.6062 20.1749 20.8189C19.8452 21.133 19.5104 21.4622 19.1959 21.832C18.6835 22.3791 18.0799 22.6374 17.2885 22.6374C17.2124 22.6374 17.1313 22.6374 17.0552 22.6323C15.5486 22.5361 14.1485 21.9485 13.0984 21.4471C10.2273 20.0591 7.7061 18.0887 5.61105 15.5915C3.88124 13.5096 2.72465 11.5848 1.95867 9.51811C1.4869 8.25683 1.31443 7.27415 1.39052 6.34719C1.44125 5.75454 1.66952 5.2632 2.09056 4.84278L3.82037 3.11549C4.06893 2.88248 4.33272 2.75584 4.59143 2.75584C4.91101 2.75584 5.16972 2.94833 5.33205 3.11042C5.33712 3.11548 5.34219 3.12055 5.34727 3.12562C5.6567 3.41434 5.95092 3.7132 6.26036 4.03232C6.41762 4.19441 6.57995 4.3565 6.74227 4.52366L8.12714 5.9065C8.66485 6.44343 8.66485 6.93984 8.12714 7.47677C7.98003 7.62366 7.83799 7.77056 7.69088 7.91239C7.26477 8.34801 6.85895 8.75324 6.41762 9.14834C6.40747 9.15847 6.39733 9.16354 6.39226 9.17367C5.956 9.60929 6.03716 10.0348 6.12847 10.3235C6.13354 10.3387 6.13862 10.3539 6.14369 10.3691C6.50386 11.2403 7.01113 12.0609 7.78219 13.0385L7.78726 13.0436C9.18734 14.7658 10.6635 16.1082 12.2919 17.1364C12.4999 17.2681 12.7129 17.3745 12.9158 17.4758C13.0984 17.567 13.2709 17.6531 13.418 17.7443C13.4383 17.7544 13.4586 17.7696 13.4789 17.7797C13.6514 17.8658 13.8137 17.9064 13.9811 17.9064C14.4021 17.9064 14.6659 17.643 14.7522 17.5568L16.487 15.8245C16.6595 15.6523 16.9334 15.4446 17.253 15.4446C17.5675 15.4446 17.8262 15.6421 17.9835 15.8144C17.9886 15.8194 17.9886 15.8194 17.9936 15.8245L20.7887 18.6155C21.3112 19.1322 21.3112 19.664 20.7938 20.201Z" fill="#251C41"/>
<path d="M12.9715 5.70897C14.3005 5.93184 15.5078 6.55995 16.4717 7.52237C17.4355 8.48479 18.0594 9.69034 18.2877 11.0175C18.3435 11.3518 18.6326 11.5848 18.9624 11.5848C19.003 11.5848 19.0385 11.5797 19.079 11.5747C19.4544 11.5139 19.703 11.1593 19.6421 10.7845C19.3682 9.17874 18.6073 7.71485 17.4456 6.55488C16.284 5.39491 14.8179 4.63511 13.2099 4.36158C12.8345 4.30079 12.4845 4.549 12.4185 4.91877C12.3526 5.28854 12.5961 5.64818 12.9715 5.70897Z" fill="#251C41"/>
<path d="M23.9896 10.5869C23.5381 7.94279 22.2902 5.53674 20.3727 3.62203C18.4552 1.70732 16.0456 0.461243 13.3976 0.0104253C13.0273 -0.0554245 12.6773 0.197844 12.6114 0.567616C12.5505 0.942453 12.7991 1.29196 13.1744 1.35781C15.5383 1.75798 17.6943 2.87742 19.4089 4.58445C21.1234 6.29655 22.2395 8.44933 22.6402 10.8098C22.696 11.1441 22.9852 11.3771 23.3149 11.3771C23.3555 11.3771 23.391 11.372 23.4316 11.367C23.8019 11.3113 24.0555 10.9567 23.9896 10.5869Z" fill="#251C41"/>
</svg>
