<svg width="13" height="20" viewBox="0 0 13 20" fill="none" xmlns="http://www.w3.org/2000/svg">
<path d="M11.7184 11.1636L3.18807 19.6938C2.99077 19.8912 2.7274 20 2.44657 20C2.16574 20 1.90237 19.8912 1.70507 19.6938L1.07687 19.0657C0.6681 18.6565 0.668101 17.9914 1.07688 17.5827L8.24001 10.4196L1.06894 3.24853C0.871642 3.05108 0.762709 2.78786 0.762709 2.50719C0.762709 2.22621 0.871643 1.96299 1.06894 1.76538L1.69714 1.1375C1.89459 0.940044 2.15781 0.831266 2.43864 0.831266C2.71946 0.831266 2.98284 0.940044 3.18013 1.1375L11.7184 9.67546C11.9162 9.87354 12.0248 10.138 12.0242 10.4191C12.0248 10.7014 11.9162 10.9657 11.7184 11.1636Z" fill="#313131"/>
</svg>
