<svg width="16" height="10" viewBox="0 0 16 10" fill="none" xmlns="http://www.w3.org/2000/svg">
<path d="M7.37568 9.44471L0.255608 2.32451C0.0907959 2.15982 -7.16833e-08 1.93999 -6.14371e-08 1.70558C-5.1191e-08 1.47118 0.090796 1.25134 0.255608 1.08666L0.779831 0.56231C1.12142 0.221109 1.6766 0.221109 2.01767 0.56231L7.99668 6.54132L13.9823 0.555676C14.1471 0.390995 14.3668 0.300069 14.6011 0.300069C14.8357 0.300069 15.0554 0.390995 15.2203 0.555676L15.7444 1.08003C15.9092 1.24484 16 1.46455 16 1.69895C16 1.93336 15.9092 2.15319 15.7444 2.31787L8.61782 9.44471C8.45248 9.60978 8.23174 9.70045 7.99707 9.69993C7.7615 9.70045 7.54088 9.60978 7.37568 9.44471Z" fill="#535353"/>
</svg>
