<svg width="10" height="11" viewBox="0 0 10 11" fill="none" xmlns="http://www.w3.org/2000/svg">
<g clip-path="url(#clip0)">
<path d="M7.80633 5.88119L3.4597 10.2277C3.35916 10.3284 3.22496 10.3838 3.08187 10.3838C2.93877 10.3838 2.80457 10.3284 2.70404 10.2277L2.38394 9.90773C2.17564 9.6992 2.17564 9.36028 2.38394 9.15207L6.03391 5.50209L2.37989 1.84807C2.27935 1.74746 2.22385 1.61333 2.22385 1.47032C2.22385 1.32714 2.27935 1.19302 2.37989 1.09233L2.69999 0.772387C2.8006 0.671775 2.93472 0.616347 3.07782 0.616347C3.22091 0.616347 3.35511 0.671775 3.45565 0.772387L7.80633 5.12291C7.9071 5.22384 7.96245 5.3586 7.96213 5.50185C7.96245 5.64567 7.9071 5.78034 7.80633 5.88119Z" fill="black"/>
</g>
<defs>
<clipPath id="clip0">
<rect width="9.76744" height="9.76744" transform="matrix(1 0 0 -1 0.209351 10.3838)" fill="white"/>
</clipPath>
</defs>
</svg>
