<svg width="20" height="13" viewBox="0 0 20 13" fill="none" xmlns="http://www.w3.org/2000/svg">
<path d="M9.645 11.7406L1.11482 3.21028C0.917371 3.01299 0.808594 2.74961 0.808594 2.46879C0.808594 2.18796 0.917371 1.92459 1.11482 1.72729L1.74287 1.09909C2.15211 0.690317 2.81724 0.690317 3.22586 1.09909L10.389 8.26222L17.5601 1.09115C17.7575 0.893853 18.0207 0.78492 18.3014 0.78492C18.5824 0.78492 18.8456 0.893854 19.0432 1.09115L19.6711 1.71935C19.8685 1.9168 19.9773 2.18002 19.9773 2.46085C19.9773 2.74167 19.8685 3.00505 19.6711 3.20234L11.1331 11.7406C10.9351 11.9384 10.6706 12.047 10.3895 12.0464C10.1072 12.047 9.84291 11.9384 9.645 11.7406Z" fill="#313131"/>
</svg>
