<svg width="26" height="26" viewBox="0 0 26 26" fill="none" xmlns="http://www.w3.org/2000/svg">
<path opacity="0.2" fill-rule="evenodd" clip-rule="evenodd" d="M13 26C20.1797 26 26 20.1797 26 13C26 5.8203 20.1797 0 13 0C5.8203 0 0 5.8203 0 13C0 20.1797 5.8203 26 13 26ZM11.0422 14.4923V22H13.9824V14.4923H16.8687L17 11.7892H13.9824V9.81544C13.9824 9.07014 14.143 8.6211 15.1454 8.6211C16.0716 8.6211 16.9203 8.62914 16.9203 8.62914L16.9859 6.10488C16.9859 6.10488 16.1537 6 15.0282 6C12.2486 6 11.0422 7.66611 11.0422 9.4804V11.7892H9V14.4923H11.0422Z" fill="white"/>
</svg>
