<svg width="26" height="26" viewBox="0 0 26 26" fill="none" xmlns="http://www.w3.org/2000/svg">
<path opacity="0.2" fill-rule="evenodd" clip-rule="evenodd" d="M13 26C20.1797 26 26 20.1797 26 13C26 5.8203 20.1797 0 13 0C5.8203 0 0 5.8203 0 13C0 20.1797 5.8203 26 13 26ZM12.9969 6C14.85 6 16.5938 6.72187 17.9031 8.03438C19.2125 9.34688 20 11.0875 20 12.9406C20 16.7656 16.8188 19.8781 12.9969 19.8781H12.9937C11.8313 19.8781 10.6906 19.5875 9.67812 19.0344L6 20L6.98438 16.4062C6.37813 15.3531 6.05937 14.1594 6.05937 12.9375C6.05937 9.1125 9.17188 6 12.9969 6ZM10.0594 17.9062C10.9437 18.4312 11.9594 18.7094 12.9969 18.7094C16.175 18.7094 18.8281 16.1219 18.8281 12.9406C18.8312 11.4 18.1625 9.95312 17.075 8.8625C15.9875 7.77187 14.5406 7.17188 13 7.17188C9.81875 7.17188 7.23125 9.75938 7.23125 12.9375C7.23125 14.0281 7.53437 15.0875 8.1125 16.0063L8.25 16.225L7.66875 18.3531L9.85 17.7812L10.0594 17.9062ZM14.975 13.8281C15.1344 13.8844 15.9875 14.3031 16.1594 14.3906C16.1875 14.4044 16.2142 14.4172 16.2392 14.4291C16.3671 14.4902 16.4535 14.5315 16.4875 14.5969C16.5312 14.6688 16.5312 15.0156 16.3875 15.4219C16.2437 15.8281 15.5531 16.1969 15.2188 16.2469C14.6687 16.3281 14.2375 16.2875 13.1375 15.8125C11.5166 15.1112 10.4215 13.5455 10.2078 13.24C10.192 13.2174 10.181 13.2017 10.175 13.1938C10.1728 13.1907 10.1703 13.1873 10.1674 13.1833C10.0588 13.0353 9.46875 12.231 9.46875 11.4C9.46875 10.603 9.85876 10.1851 10.04 9.99088C10.0528 9.97721 10.0645 9.96464 10.075 9.95312C10.2344 9.78125 10.4219 9.7375 10.5375 9.7375C10.6531 9.7375 10.7688 9.7375 10.8688 9.74375C10.8816 9.74451 10.8951 9.74448 10.909 9.74446C11.0098 9.74428 11.1358 9.74406 11.2594 10.0406C11.3018 10.1431 11.362 10.2898 11.4269 10.4478C11.5816 10.8248 11.7629 11.2665 11.7937 11.3281C11.8375 11.4156 11.8656 11.5156 11.8094 11.6313C11.6621 11.9259 11.5098 12.0852 11.4018 12.1981C11.2669 12.3392 11.2011 12.4081 11.3 12.5781C11.9719 13.7312 12.6406 14.1313 13.6594 14.6406C13.8313 14.7281 13.9344 14.7125 14.0344 14.5969C14.1375 14.4781 14.4688 14.0906 14.5844 13.9156C14.7 13.7406 14.8156 13.7688 14.975 13.8281Z" fill="white"/>
</svg>
